<svg width="82" height="37" viewBox="0 0 82 37" fill="none" xmlns="http://www.w3.org/2000/svg">
<rect width="80.3191" height="36.0051" transform="translate(0.853226 0.222168)" fill="white"/>
<path d="M27.2532 18.6546V17.8767L28.6251 17.6787V16.7357L27.2532 16.9809V16.1936H28.5827V15.2884H27.2532V14.3926H26.348V15.2884H24.8581V16.1936H26.348V17.0893L24.8959 17.3015V18.2444L26.348 18.0323V18.7206C26.3385 18.8771 26.2123 19.0012 26.0557 19.0082C25.9274 19.0243 25.7983 19.0321 25.6691 19.0318C25.3956 19.0318 25.1552 19.0035 25.1505 19.0035L25.3438 19.8757H26.2867C26.9279 19.8521 27.2532 19.4608 27.2532 18.6546Z" fill="black"/>
<path d="M30.1763 16.7785C30.1763 16.637 30.1763 16.4909 30.1763 16.3494C30.1763 16.208 30.1763 16.0006 30.1763 15.8167C31.3944 15.7698 32.6093 15.6597 33.816 15.4867L33.5708 14.572C32.136 14.7663 30.6906 14.8718 29.2428 14.8879V17.0849C29.182 17.9219 28.7754 18.6957 28.1207 19.2206L28.8798 19.8288C29.3141 19.4421 29.6668 18.9725 29.917 18.4474C30.0422 18.2094 30.1297 17.9533 30.1763 17.6884H31.9537V19.744H32.8636V17.6884H33.9763V16.7785H30.1763Z" fill="black"/>
<path d="M25.8105 23.7982H26.7204V23.3267H32.1752V23.7982H33.0804V20.0784H25.8105V23.7982ZM26.7204 20.9694H32.1752V22.4074H26.7204V20.9694Z" fill="black"/>
<path d="M8.83316 17.9004H5.88181V20.8517H8.83316V17.9004Z" fill="#00B6FF"/>
<path d="M2.93046 14.949V17.9003H5.88181H8.83316V20.8564V23.8077H11.7892V14.949H2.93046Z" fill="#004BFF"/>
<path d="M14.7406 11.9929H11.7892V14.9443H14.7406V11.9929Z" fill="#00B6FF"/>
<path d="M52.83 23.5391C52.3759 23.1967 52.1316 22.6437 52.1841 22.0775C52.1322 20.3048 52.1841 15.0056 52.1841 15.0056H53.3769V16.585H54.5697V17.7778H53.3769V21.6957C53.3769 22.1671 53.4052 22.6386 54.0841 22.6386C54.4351 22.6337 54.7834 22.5748 55.1166 22.4641V23.6287C54.928 23.7182 53.4146 23.9681 52.83 23.5391Z" fill="black"/>
<path d="M64.4798 14.3926H63.287V15.5854H64.4798V14.3926Z" fill="black"/>
<path d="M64.4798 16.5615H63.287V23.8079H64.4798V16.5615Z" fill="black"/>
<path d="M47.5826 23.7937C46.0645 23.7937 44.9943 23.03 44.933 21.2809C44.9 20.2342 44.933 16.5662 44.933 16.5662H46.1305C46.1305 16.5662 46.1305 20.1022 46.1305 21.1488C46.1635 22.5019 47.0357 22.799 47.8608 22.766C48.9023 22.766 49.7466 21.9216 49.7466 20.8801V16.5615H50.9441V23.8032H49.7466V22.5444C49.7466 22.5444 49.3459 23.7466 47.5826 23.7937Z" fill="black"/>
<path d="M69.0577 16.571C70.5758 16.571 71.646 17.3347 71.7073 19.0838C71.7403 20.1305 71.7073 23.7985 71.7073 23.7985H70.5098C70.5098 23.7985 70.5098 20.2625 70.5098 19.2159C70.4721 17.858 69.5999 17.561 68.7795 17.594C67.738 17.594 66.8937 18.4383 66.8937 19.4799V23.8173H65.6962V16.5615H66.8937V17.8203C66.8937 17.8203 67.2944 16.6134 69.0577 16.571Z" fill="black"/>
<path d="M59.4069 16.5708C60.9297 16.5708 61.9999 17.3346 62.0565 19.0837C62.0895 20.1303 62.0565 23.7983 62.0565 23.7983H60.8684C60.8684 23.7983 60.8684 20.2624 60.8684 19.2157C60.8307 17.8579 59.9585 17.5609 59.1334 17.5939C58.0919 17.5939 57.2476 18.4382 57.2476 19.4797V23.8172H56.0548V14.3879H57.2476V17.8155C57.2476 17.8155 57.653 16.6132 59.4069 16.5708Z" fill="black"/>
<path d="M75.9976 23.8313C73.8996 23.8077 72.6974 22.1718 72.6974 20.102C72.6974 18.0323 74.1589 16.4907 76.0401 16.5189C77.9212 16.5472 79.0951 18.0606 79.0951 20.102C79.0948 20.2596 79.0854 20.417 79.0668 20.5735H73.8195C73.8195 21.045 74.2909 22.7705 75.9788 22.8177C76.8489 22.8476 77.6489 22.3429 77.9966 21.5447H78.9725C78.6795 22.9357 77.4171 23.906 75.9976 23.8313ZM75.9976 17.575C74.2721 17.575 73.8148 19.5363 73.8148 19.739H78.0013C78.006 19.5127 77.7185 17.575 76.0023 17.575H75.9976Z" fill="black"/>
<path d="M16.2257 15.9579H22.2604V20.3284H23.1703V15.0527H19.4458L19.5872 14.3879H18.6584L18.517 15.0527H15.3158V20.3519H16.2257V15.9579Z" fill="black"/>
<path d="M19.6957 20.0173V18.6029H21.8314V17.693H19.6957V16.1702H18.7905V17.693H16.7632V18.5982H18.3143C17.8601 19.0733 17.2871 19.4184 16.6548 19.5977L16.8103 20.0267L16.9471 20.3992C17.6387 20.1431 18.2662 19.7392 18.7858 19.2158V20.0031L19.6957 20.0173Z" fill="black"/>
<path d="M18.0691 17.6458L18.5783 17.0895L17.5552 16.156L17.046 16.6746L18.0691 17.6458Z" fill="black"/>
<path d="M21.7182 16.6982L21.2185 16.0947C20.8205 16.4349 20.4017 16.7498 19.9644 17.0377L20.3604 17.6317C20.8419 17.3648 21.2966 17.0522 21.7182 16.6982Z" fill="black"/>
<path d="M20.6668 22.2567C20.3925 22.1265 20.152 21.9344 19.9643 21.6957H23.7926V20.7528H19.6673C19.6673 20.5689 19.6673 20.418 19.6673 20.3237H18.7904C18.7891 20.4673 18.7781 20.6107 18.7574 20.7528H14.75V21.6957H18.4792C18.4333 21.7687 18.3778 21.8353 18.3142 21.8937C17.3477 22.6999 15.6505 22.8791 14.7358 22.9545L14.4954 22.9781H14.4718L14.7594 23.855C15.2309 23.8125 17.8852 23.5674 18.9365 22.549C19.0616 22.4258 19.1694 22.2862 19.2571 22.1341C19.5483 22.544 19.933 22.8785 20.3792 23.1101C21.3936 23.601 22.5054 23.8572 23.6323 23.8597L24 22.813C22.8609 22.8878 21.7199 22.6974 20.6668 22.2567Z" fill="black"/>
<path d="M21.8549 19.6024L20.186 18.7161L19.8088 19.4185L21.4778 20.3049L21.8549 19.6024Z" fill="black"/>
<path d="M43.1556 23.7984L42.1372 21.3279H37.7904L36.7767 23.7984H35.5603L39.2377 14.9585H40.7134L44.3908 23.7984H43.1556ZM38.2288 20.2813H41.7035L39.9638 16.1749L38.2288 20.2813Z" fill="black"/>
</svg>
